/* XPM */
static char * boba_ship_xpm[] = {
"32 32 257 2",
"  	c None",
". 	c #000000",
"+ 	c #800000",
"@ 	c #008000",
"# 	c #808000",
"$ 	c #000080",
"% 	c #800080",
"& 	c #008080",
"* 	c #C0C0C0",
"= 	c #C0DCC0",
"- 	c #A6CAF0",
"; 	c #FFFFCC",
"> 	c #FFFF99",
", 	c #FFFF66",
"' 	c #FFFF33",
") 	c #FFCCFF",
"! 	c #FFCCCC",
"~ 	c #FFCC99",
"{ 	c #FFCC66",
"] 	c #FFCC33",
"^ 	c #FFCC00",
"/ 	c #FF99FF",
"( 	c #FF99CC",
"_ 	c #FF9999",
": 	c #FF9966",
"< 	c #FF9933",
"[ 	c #FF9900",
"} 	c #FF66FF",
"| 	c #FF66CC",
"1 	c #FF6699",
"2 	c #FF6666",
"3 	c #FF6633",
"4 	c #FF6600",
"5 	c #FF33FF",
"6 	c #FF33CC",
"7 	c #FF3399",
"8 	c #FF3366",
"9 	c #FF3333",
"0 	c #FF3300",
"a 	c #FF00CC",
"b 	c #FF0099",
"c 	c #FF0066",
"d 	c #FF0033",
"e 	c #CCFFFF",
"f 	c #CCFFCC",
"g 	c #CCFF99",
"h 	c #CCFF66",
"i 	c #CCFF66",
"j 	c #CCFF33",
"k 	c #CCFF00",
"l 	c #CCCCFF",
"m 	c #CCCCCC",
"n 	c #CCCC99",
"o 	c #CCCC66",
"p 	c #CCCC33",
"q 	c #CCCC00",
"r 	c #CC99FF",
"s 	c #CC99CC",
"t 	c #CC9999",
"u 	c #CC9966",
"v 	c #CC9933",
"w 	c #CC9900",
"x 	c #CC66FF",
"y 	c #CC66CC",
"z 	c #CC6699",
"A 	c #CC6666",
"B 	c #CC6633",
"C 	c #CC6600",
"D 	c #CC33FF",
"E 	c #CC33CC",
"F 	c #CC3399",
"G 	c #CC3366",
"H 	c #CC3333",
"I 	c #CC3300",
"J 	c #CC00FF",
"K 	c #CC00CC",
"L 	c #CC0099",
"M 	c #CC0066",
"N 	c #CC0033",
"O 	c #CC0000",
"P 	c #99FFFF",
"Q 	c #99FFCC",
"R 	c #99FF99",
"S 	c #99FF66",
"T 	c #99FF33",
"U 	c #99FF00",
"V 	c #99CCFF",
"W 	c #99CCCC",
"X 	c #99CC99",
"Y 	c #99CC66",
"Z 	c #99CC33",
"` 	c #99CC00",
" .	c #9999FF",
"..	c #9999CC",
"+.	c #999999",
"@.	c #999966",
"#.	c #999933",
"$.	c #999900",
"%.	c #9966FF",
"&.	c #9966CC",
"*.	c #996699",
"=.	c #996666",
"-.	c #996633",
";.	c #996600",
">.	c #9933FF",
",.	c #9933CC",
"'.	c #993399",
").	c #993366",
"!.	c #993333",
"~.	c #993300",
"{.	c #9900FF",
"].	c #9900CC",
"^.	c #990099",
"/.	c #990066",
"(.	c #990033",
"_.	c #990000",
":.	c #66FFFF",
"<.	c #66FFCC",
"[.	c #66FF99",
"}.	c #66FF66",
"|.	c #66FF33",
"1.	c #66FF00",
"2.	c #66CCFF",
"3.	c #66CCCC",
"4.	c #66CC99",
"5.	c #66CC66",
"6.	c #66CC33",
"7.	c #66CC00",
"8.	c #6699FF",
"9.	c #6699CC",
"0.	c #669999",
"a.	c #669966",
"b.	c #669933",
"c.	c #669900",
"d.	c #6666FF",
"e.	c #6666CC",
"f.	c #666699",
"g.	c #666666",
"h.	c #666633",
"i.	c #666600",
"j.	c #6633FF",
"k.	c #6633CC",
"l.	c #663399",
"m.	c #663366",
"n.	c #663333",
"o.	c #663300",
"p.	c #6600FF",
"q.	c #6600CC",
"r.	c #660099",
"s.	c #660066",
"t.	c #660033",
"u.	c #660000",
"v.	c #33FFFF",
"w.	c #33FFCC",
"x.	c #33FF99",
"y.	c #33FF66",
"z.	c #33FF33",
"A.	c #33FF00",
"B.	c #33CCFF",
"C.	c #33CCCC",
"D.	c #33CC99",
"E.	c #33CC66",
"F.	c #33CC33",
"G.	c #33CC00",
"H.	c #3399FF",
"I.	c #3399CC",
"J.	c #339999",
"K.	c #339966",
"L.	c #339933",
"M.	c #339900",
"N.	c #3366FF",
"O.	c #3366CC",
"P.	c #336699",
"Q.	c #336666",
"R.	c #336633",
"S.	c #336600",
"T.	c #3333FF",
"U.	c #3333CC",
"V.	c #333399",
"W.	c #333366",
"X.	c #333333",
"Y.	c #333300",
"Z.	c #3300FF",
"`.	c #3300CC",
" +	c #330099",
".+	c #330066",
"++	c #330033",
"@+	c #330000",
"#+	c #00FFCC",
"$+	c #00FF99",
"%+	c #00FF66",
"&+	c #00FF33",
"*+	c #00CCFF",
"=+	c #00CCCC",
"-+	c #00CC99",
";+	c #00CC66",
">+	c #00CC33",
",+	c #00CC00",
"'+	c #0099FF",
")+	c #0099CC",
"!+	c #009999",
"~+	c #009966",
"{+	c #009933",
"]+	c #009900",
"^+	c #0066FF",
"/+	c #0066CC",
"(+	c #006699",
"_+	c #006666",
":+	c #006600",
"<+	c #006633",
"[+	c #0033FF",
"}+	c #0033CC",
"|+	c #003399",
"1+	c #003366",
"2+	c #003333",
"3+	c #003300",
"4+	c #0000CC",
"5+	c #000099",
"6+	c #000066",
"7+	c #000033",
"8+	c #DD0000",
"9+	c #BB0000",
"0+	c #AA0000",
"a+	c #880000",
"b+	c #770000",
"c+	c #550000",
"d+	c #440000",
"e+	c #220000",
"f+	c #00DD00",
"g+	c #00BB00",
"h+	c #00AA00",
"i+	c #008800",
"j+	c #007700",
"k+	c #005500",
"l+	c #004400",
"m+	c #002200",
"n+	c #DDDDDD",
"o+	c #555555",
"p+	c #777777",
"q+	c #777777",
"r+	c #444444",
"s+	c #222222",
"t+	c #111111",
"u+	c #000077",
"v+	c #000055",
"w+	c #000044",
"x+	c #000022",
"y+	c #FFFBF0",
"z+	c #A0A0A4",
"A+	c #808080",
"B+	c #FF0000",
"C+	c #00FF00",
"D+	c #FFFF00",
"E+	c #0000FF",
"F+	c #FF00FF",
"G+	c #00FFFF",
"H+	c #FFFFFF",
"                                                .     .         ",
"                                                . . . .         ",
"                                              . y+* . z+.       ",
"                                          . . y+* z+. o+.       ",
"                                        . y+* * z++.o+.         ",
"                                    . . H+o++.z++.+..           ",
"                                  . H+* o++.z++.+..             ",
"                                . H++.o++.z++.+..               ",
"                            . . H+z++.+.z++.+..                 ",
"                          . H+* * z+z+z++.+..                   ",
"                        . H+* * z+z+o++.+..                     ",
"                      . +.r+* z+z+o++.+.+.. . . .               ",
"        . .         . +.r+s+s+z+z++.+.+.+.! 2 A * .             ",
"      . z++.. .   . +.r+s+s+s+r++.+.+.p++.o+A A A * .           ",
"    . z+H+H++.+.. +.r+s+s+s+. s++.+.p+p+p+o+o+A =.=..           ",
"  . H++.+.+.H+. +.r+s+s+s+. . +.+.p+p+o+o+o+r+A =.=..           ",
". H+n+n++.+.. +.r+r+s+s+. . +.+.s+s+. o+o+o+s+=.o+=..           ",
". . . . n+z+. +.r+s+s+. . +.+.r+r+s+s+. o+o+s+o.o+o..           ",
"        . . +.r+r+s+s+. . +.p+r+r+r+s+s+. o+o.o+o+.             ",
"          . +.r+s+s+. . +.+.r+r+r+r+r+s+s+r+o.o+c+.             ",
"        . A +.r+s+s+. . +.+.r+o+r+r+s+z+z+s+c+o.p+.             ",
"        . 2 +.r+s+s+. . +.+.r+o+o+r+s+. z+n+H+c+.               ",
"        . 2 +.r+s+s+. +.+.+.r+o+o+r+s+. +.z+n+H+o+. .           ",
"      . ! A H+r+s+s+p++.+.+.r+o+o+r+s+s+o++.z+n+o+o+o+. .       ",
"      . ! =.H+* z+z+p+p++.+.r+o+r+r+s+s+c+o+o+o+z+z+o+o+o+.     ",
"      . ! 2 2 H+z+z++.p++.z+=.r+r+r+s+c++.+.o+o+o+o+z+z+o+s+.   ",
"      . ! =.o+H+H+z+z+z+z+=.=.=.o.=.c+c+o++.+.+.o+o+o+o+s+.     ",
"        . o+o+o+r+2 A o.=.A o+=.=.o.o+c+. . . . +.o+o+s+.       ",
"        . o+o+o+r+2 +.A p+A =.o+o.=.. .         . +.s+.         ",
"          . . o+r++.+.+.p+p+p+. . .             . +..           ",
"              . . . . . . . .                     .             ",
"                                                                "};
