/* XPM */
static char * electronics_32x32_xpm[] = {
"32 32 208 2",
"  	c None",
". 	c #FC0808",
"+ 	c #F31212",
"@ 	c #686868",
"# 	c #438F6A",
"$ 	c #44906B",
"% 	c #16B816",
"& 	c #46916C",
"* 	c #777777",
"= 	c #47926D",
"- 	c #48936E",
"; 	c #4A9470",
"> 	c #4B9471",
", 	c #4D9572",
"' 	c #4E9673",
") 	c #4F9774",
"! 	c #519875",
"~ 	c #529876",
"{ 	c #549977",
"] 	c #0CD20C",
"^ 	c #559B79",
"/ 	c #569C7A",
"( 	c #589D7B",
"_ 	c #5A9E7C",
": 	c #5B9E7D",
"< 	c #5C9F7F",
"[ 	c #5EA080",
"} 	c #5FA181",
"| 	c #61A282",
"1 	c #8B8B8B",
"2 	c #62A384",
"3 	c #64A485",
"4 	c #65A586",
"5 	c #529BF1",
"6 	c #66A687",
"7 	c #68A788",
"8 	c #69A889",
"9 	c #71A48B",
"0 	c #6BA88A",
"a 	c #6CA98B",
"b 	c #72A68D",
"c 	c #73A68D",
"d 	c #73A68E",
"e 	c #74A78E",
"f 	c #75A88F",
"g 	c #989898",
"h 	c #999999",
"i 	c #9B9B9B",
"j 	c #9F9F9F",
"k 	c #77A6EF",
"l 	c #A0A0A0",
"m 	c #70C270",
"n 	c #65AFFC",
"o 	c #A2A2A2",
"p 	c #E48787",
"q 	c #A3A3A3",
"r 	c #E58787",
"s 	c #A4A4A4",
"t 	c #A5A5A5",
"u 	c #A6A6A6",
"v 	c #A7A7A7",
"w 	c #A8A8A8",
"x 	c #A9A9A9",
"y 	c #AAAAAA",
"z 	c #ABABAB",
"A 	c #ACACAC",
"B 	c #ADADAD",
"C 	c #EC9292",
"D 	c #8FC28F",
"E 	c #B0B0B0",
"F 	c #9CB4D9",
"G 	c #92C2AB",
"H 	c #93C2AB",
"I 	c #94C2AB",
"J 	c #94C3AC",
"K 	c #95C3AC",
"L 	c #96C3AD",
"M 	c #96C4AD",
"N 	c #96C4AE",
"O 	c #97C4AE",
"P 	c #97C4AF",
"Q 	c #98C4AF",
"R 	c #98C5AF",
"S 	c #99C5B0",
"T 	c #98C6B0",
"U 	c #B6B6B6",
"V 	c #99C6B0",
"W 	c #9AC6B0",
"X 	c #9AC6B1",
"Y 	c #9BC7B1",
"Z 	c #B8B8B8",
"` 	c #9CBFE7",
" .	c #9EC9B4",
"..	c #BABABA",
"+.	c #9FC9B5",
"@.	c #9FCAB4",
"#.	c #9FCAB5",
"$.	c #BBBBBB",
"%.	c #A0CAB5",
"&.	c #A0CAB6",
"*.	c #BDBDBD",
"=.	c #BEBEBE",
"-.	c #BFBFBF",
";.	c #D5BAA0",
">.	c #C0C0C0",
",.	c #A3D7A3",
"'.	c #C2C2C2",
").	c #C3C3C3",
"!.	c #C4C4C4",
"~.	c #BBC9C2",
"{.	c #A9CBEC",
"].	c #C5C5C5",
"^.	c #B5D1B5",
"/.	c #BECAC4",
"(.	c #C6C6C6",
"_.	c #EFC175",
":.	c #BFCBC5",
"<.	c #C7C7C7",
"[.	c #C8C8C8",
"}.	c #B9CCE2",
"|.	c #C9C9C9",
"1.	c #C2CDC8",
"2.	c #C3CEC8",
"3.	c #C3CEC9",
"4.	c #BBD6BB",
"5.	c #E0C99C",
"6.	c #CBCBCB",
"7.	c #D3C9C0",
"8.	c #CCCCCC",
"9.	c #C6D0CB",
"0.	c #E8C1C1",
"a.	c #CDCDCD",
"b.	c #C4CEE3",
"c.	c #C8D1CD",
"d.	c #E2CAAC",
"e.	c #CECECE",
"f.	c #F9D43B",
"g.	c #CFCFCF",
"h.	c #E5C6C6",
"i.	c #D0D0D0",
"j.	c #CAD4D0",
"k.	c #D1D1D1",
"l.	c #ECD480",
"m.	c #D2D2D2",
"n.	c #CDD6D2",
"o.	c #D3D3D3",
"p.	c #CDD8CD",
"q.	c #D4D4D4",
"r.	c #DDD2C9",
"s.	c #D5D5D5",
"t.	c #FFDF32",
"u.	c #D6D6D6",
"v.	c #D5D7DA",
"w.	c #D7D7D7",
"x.	c #E3D2D2",
"y.	c #D8D8D8",
"z.	c #DED7CE",
"A.	c #D3DAE3",
"B.	c #D9D9D9",
"C.	c #E5D5D5",
"D.	c #DADADA",
"E.	c #D8DCD8",
"F.	c #DBDBDB",
"G.	c #DCDCDC",
"H.	c #DDDDDD",
"I.	c #DEDEDE",
"J.	c #DFDFDF",
"K.	c #E0E0E0",
"L.	c #E1E1E1",
"M.	c #E2E2E2",
"N.	c #D9E8E1",
"O.	c #DDE6E2",
"P.	c #E3E3E3",
"Q.	c #D9E9E1",
"R.	c #DAE9E2",
"S.	c #E4E4E4",
"T.	c #E3E5E3",
"U.	c #E0E7E4",
"V.	c #DBEAE2",
"W.	c #DBEAE3",
"X.	c #E9E3E3",
"Y.	c #E5E5E5",
"Z.	c #DCEAE3",
"`.	c #DCEBE4",
" +	c #E6E6E6",
".+	c #DDEBE4",
"++	c #DDECE5",
"@+	c #E7E7E7",
"#+	c #DEECE5",
"$+	c #E8E8E8",
"%+	c #E9E9E9",
"&+	c #EAEAEA",
"*+	c #EBEBEB",
"=+	c #ECECEC",
"-+	c #EDEDED",
";+	c #EFEFEF",
">+	c #F0F0F0",
",+	c #F1F1F1",
"'+	c #F2F2F2",
")+	c #F4F4F4",
"!+	c #F6F6F6",
"~+	c #F5F7F6",
"{+	c #FAFAFA",
"]+	c #FBFBFB",
"^+	c #FCFCFC",
"/+	c #FDFDFD",
"(+	c #FEFEFE",
"_+	c #FFFFFF",
"                                                                ",
"              g h h h h h h h h h h h h h h h h *               ",
"          * S.]+(+(+(+(+(+(+(+(+(+(+(+(+(+(+(+^+,+1             ",
"          x /+_+_+_+_+_+_+_+_+_+_+_+_+_+_+_+_+_+_+g.            ",
"          B _+*+o.o.o.o.o.o.o.o.o.o.o.o.o.o.o.&+_+D.            ",
"          A _+/.9 b b b b b b c d d e e f f c 1._+B.            ",
"          A _+~. . . . . .+.@.#.#.#.%.&.&.&.&.c._+y.            ",
"          z _+:.M N O O O R R R S V V W X Y Y 2._+u.            ",
"          z (+3.G H I J K K L L N P P Q T V W 9./+s.            ",
"          y '+j.# $ & = - ; > , ' ) ! ~ { ^ / n.'+i.            ",
"          y {+O.( _ : < [ } | 2 3 4 6 7 8 0 a U.{+o.            ",
"          x !+~+N.Q.R.R.R.V.W.Z.Z.`.`..+.+++#+~+!+g.            ",
"          x )+)+)+)+)+)+)+)+)+)+)+)+)+)+)+)+)+)+)+e.            ",
"          w '+'+'+'+'+'+'+'+'+,+,+,+,+,+,+,+,+,+,+8.            ",
"          w >+>+G.8.s.M.e.s.i.-+].y.u.X.r C 0.;+;+6.            ",
"          w -+-+i.u.a.D.[.D.'.$+).B.<.x.+ . p -+-+|.            ",
"          v *+*+*+M. +=+&+L.%+*+@+K.=+&+C.h.=+&+&+<.            ",
"          v %+%+y.e.y.I.g.u.i.$+(.D.q.Y.D ,.4.$+$+(.            ",
"          u  + +6.B.e.s.!.H.).M.!.D.(.E.% ] m  + +!.            ",
"          u S.S.S.F.J. +S.D.P.S.K.F. +S.p.^.T.S.S.'.            ",
"          t M.M.y.<.m.H.e.i.g.P.(.o.s.K.F ` b.M.M.>.            ",
"          t K.K.).M.s.g.'.M.!.H.<.H.<.v.5 n k K.K.-.            ",
"          t H.H.G.m.w.L.B.q.G.I.s.w.I.H.}.{.A.H.G.*.            ",
"          s F.F.q.<.g.B.6.g.8.G.!.o.k.B.;.d.r.F.F.$.            ",
"          s B.B.=.S.w.a.>.P.(.D.<.J.<.7.f.t._.y.y...            ",
"          q u.u.u.e.q.G.o.o.w.y.i.u.B.u.5.l.z.u.u.Z             ",
"          o q.q.q.q.q.q.q.q.q.q.q.q.q.q.q.q.q.q.q.U             ",
"          l i.m.m.m.m.m.m.m.m.m.m.m.m.m.m.m.m.m.m.E             ",
"          g Z e.i.i.i.i.i.i.i.i.i.i.i.i.i.i.i.g.-.j             ",
"            i v z z z z z z z z z z z z z z z w l @             ",
"                                                                ",
"                                                                "};
