/* XPM */
static char * keyboard_80x80_xpm[] = {
"80 80 190 2",
"  	c None",
". 	c #080808",
"+ 	c #111111",
"@ 	c #1A1A1A",
"# 	c #1F1F1F",
"$ 	c #222222",
"% 	c #242424",
"& 	c #252525",
"* 	c #262626",
"= 	c #272727",
"- 	c #2D2D2D",
"; 	c #2F2F2F",
"> 	c #343434",
", 	c #363636",
"' 	c #373737",
") 	c #393939",
"! 	c #3A3A3A",
"~ 	c #3B3B3B",
"{ 	c #3C3C3C",
"] 	c #3F3F3F",
"^ 	c #404040",
"/ 	c #414141",
"( 	c #424242",
"_ 	c #444444",
": 	c #454545",
"< 	c #464646",
"[ 	c #4B4B4B",
"} 	c #4C4C4C",
"| 	c #4D4D4D",
"1 	c #4E4E4E",
"2 	c #515151",
"3 	c #525252",
"4 	c #545454",
"5 	c #575757",
"6 	c #595959",
"7 	c #5A5A5A",
"8 	c #5C5C5C",
"9 	c #5D5D5D",
"0 	c #606060",
"a 	c #626262",
"b 	c #636363",
"c 	c #646464",
"d 	c #656565",
"e 	c #666666",
"f 	c #676767",
"g 	c #696969",
"h 	c #6B6B6B",
"i 	c #6C6C6C",
"j 	c #6D6D6D",
"k 	c #6E6E6E",
"l 	c #6F6F6F",
"m 	c #707070",
"n 	c #717171",
"o 	c #727272",
"p 	c #737373",
"q 	c #757575",
"r 	c #767676",
"s 	c #777777",
"t 	c #787878",
"u 	c #797979",
"v 	c #7A7A7A",
"w 	c #7B7B7B",
"x 	c #7C7C7C",
"y 	c #7D7D7D",
"z 	c #7F7F7F",
"A 	c #808080",
"B 	c #818181",
"C 	c #838383",
"D 	c #848484",
"E 	c #868686",
"F 	c #878787",
"G 	c #888888",
"H 	c #898989",
"I 	c #8A8A8A",
"J 	c #8B8B8B",
"K 	c #8C8C8C",
"L 	c #8D8D8D",
"M 	c #8E8E8E",
"N 	c #8F8F8F",
"O 	c #909090",
"P 	c #919191",
"Q 	c #929292",
"R 	c #939393",
"S 	c #949494",
"T 	c #959595",
"U 	c #969696",
"V 	c #979797",
"W 	c #989898",
"X 	c #999999",
"Y 	c #9A9A9A",
"Z 	c #9B9B9B",
"` 	c #9C9C9C",
" .	c #9D9D9D",
"..	c #9E9E9E",
"+.	c #9F9F9F",
"@.	c #A0A0A0",
"#.	c #A1A1A1",
"$.	c #A2A2A2",
"%.	c #A3A3A3",
"&.	c #A4A4A4",
"*.	c #A5A5A5",
"=.	c #A7A7A7",
"-.	c #A8A8A8",
";.	c #A9A9A9",
">.	c #AAAAAA",
",.	c #ABABAB",
"'.	c #ACACAC",
").	c #ADADAD",
"!.	c #AEAEAE",
"~.	c #AFAFAF",
"{.	c #B0B0B0",
"].	c #B1B1B1",
"^.	c #B2B2B2",
"/.	c #B3B3B3",
"(.	c #B4B4B4",
"_.	c #B5B5B5",
":.	c #B6B6B6",
"<.	c #B7B7B7",
"[.	c #B8B8B8",
"}.	c #B9B9B9",
"|.	c #BABABA",
"1.	c #BBBBBB",
"2.	c #BCBCBC",
"3.	c #BDBDBD",
"4.	c #BEBEBE",
"5.	c #BFBFBF",
"6.	c #C0C0C0",
"7.	c #C1C1C1",
"8.	c #C2C2C2",
"9.	c #C3C3C3",
"0.	c #C4C4C4",
"a.	c #C5C5C5",
"b.	c #C6C6C6",
"c.	c #C7C7C7",
"d.	c #C8C8C8",
"e.	c #C9C9C9",
"f.	c #CACACA",
"g.	c #CBCBCB",
"h.	c #CCCCCC",
"i.	c #CDCDCD",
"j.	c #CECECE",
"k.	c #CFCFCF",
"l.	c #D0D0D0",
"m.	c #D1D1D1",
"n.	c #D2D2D2",
"o.	c #D3D3D3",
"p.	c #D4D4D4",
"q.	c #D5D5D5",
"r.	c #D6D6D6",
"s.	c #D7D7D7",
"t.	c #D8D8D8",
"u.	c #D9D9D9",
"v.	c #DADADA",
"w.	c #DBDBDB",
"x.	c #DCDCDC",
"y.	c #DDDDDD",
"z.	c #DEDEDE",
"A.	c #DFDFDF",
"B.	c #E0E0E0",
"C.	c #E1E1E1",
"D.	c #E2E2E2",
"E.	c #E3E3E3",
"F.	c #E4E4E4",
"G.	c #E5E5E5",
"H.	c #E6E6E6",
"I.	c #E7E7E7",
"J.	c #E8E8E8",
"K.	c #E9E9E9",
"L.	c #EAEAEA",
"M.	c #EBEBEB",
"N.	c #ECECEC",
"O.	c #EDEDED",
"P.	c #EEEEEE",
"Q.	c #EFEFEF",
"R.	c #F0F0F0",
"S.	c #F1F1F1",
"T.	c #F2F2F2",
"U.	c #F3F3F3",
"V.	c #F4F4F4",
"W.	c #F5F5F5",
"X.	c #F6F6F6",
"Y.	c #F7F7F7",
"Z.	c #F8F8F8",
"`.	c #F9F9F9",
" +	c #FAFAFA",
".+	c #FBFBFB",
"++	c #FCFCFC",
"@+	c #FDFDFD",
"#+	c #FEFEFE",
"$+	c #FFFFFF",
"                                                                                                                                                                ",
"                                                                                                                                                                ",
"                                                                                                                                                                ",
"                                                                                                                                                                ",
"                                                                                                                                                                ",
"                                                                                                                                                                ",
"                                                                                                                                                                ",
"                                                                                                                                                                ",
"                                                                                                                                                                ",
"                                            K O N M L L K J J I I I I I J J J K K K K K L L L L L K K J A                                                       ",
"                                          S x.Y.r.D.D.C.B.A.y.x.w.w.w.w.w.w.w.w.w.w.w.w.w.w.w.w.w.w.w.w.e.Q                                                     ",
"                                        O @.I.Y.y.V.V.V.U.T.T.S.S.S.R.R.R.R.R.R.R.R.R.R.R.R.R.R.R.R.R.R.u.n.O                                                   ",
"                                      L Z *.I.Z.G.V.U.U.T.S.S.R.R.Q.P.P.P.P.P.P.P.P.P.P.P.P.P.P.P.P.P.P.s.C.u.r                                                 ",
"                                      W +.*.I.Z.H.U.T.T.S.R.R.Q.P.P.O.O.N.N.N.N.N.N.N.N.N.N.N.N.N.N.N.N.r.D.J.|.0                                               ",
"                                      Z +.*.I.`.I.T.T.T.S.R.Q.P.P.O.N.M.M.L.K.K.K.K.K.K.K.K.K.K.K.K.K.K.q.E.K.n.g                                               ",
"                                      Y +.*.I.`.G.T.S.S.R.Q.Q.P.O.N.M.L.L.K.J.I.I.H.H.H.H.H.H.H.H.H.H.H.p.F.L.o.b                                               ",
"                                      Y +.*.I.`.F.P.S.R.R.Q.Q.P.O.N.M.L.K.J.I.H.H.G.F.F.F.F.F.F.F.F.F.F.n.G.M.p.c                                               ",
"                                      Y +.*.I. +G.J.R.R.Q.Q.P.P.O.N.M.L.K.J.I.H.G.F.E.D.D.D.D.D.D.D.D.D.m.H.N.q.c                                               ",
"                                      Y +.*.I. +I.F.N.R.Q.P.P.O.O.N.M.L.K.J.I.G.G.E.D.C.B.A.A.A.A.A.A.A.l.I.P.r.c                                               ",
"                                      Y +.*.I. +J.F.H.O.Q.P.O.O.N.N.M.L.K.J.I.G.G.E.D.C.B.A.z.y.y.y.y.y.k.J.P.s.c                                               ",
"                                      Y +.*.I..+L.H.G.H.N.P.O.O.N.M.M.L.K.J.I.H.G.E.D.C.A.z.y.x.w.v.v.v.j.K.R.t.c                                               ",
"                                      Y +.*.I..+M.J.I.H.H.L.O.N.N.M.L.L.K.J.I.H.G.E.D.C.A.z.y.x.w.u.t.t.h.L.S.t.c                                               ",
"                                      Y +.=.J..+O.L.K.J.H.H.J.M.N.M.L.L.K.J.I.I.H.F.E.C.B.A.y.x.v.u.t.r.g.M.T.v.d                                               ",
"                                      Y #.>.K.++P.M.L.K.*./ ^ [ 5.L.L.L.K.J.I.H.H.G.E.D.C.A.y.x.w.u.t.r.h.N.U.v.d                                               ",
"                                      Z &.).L.++R.O.N.M.b.K + = h.G.H.I.J.J.I.H.H.G.F.E.C.B.z.x.w.u.t.p.g.O.V.w.d                                               ",
"                                      ..-.].M.++S.P.P.N.y.4 & 5.I.H.G.F.E.E.E.F.E.E.D.C.B.A.y.v.s.p.l.i.f.Q.W.x.d                                               ",
"                                      #.,./.M.++T.R.Q.P.E . } D 9.J.I.H.G.F.E.D.B.B.A.z.y.x.v.t.r.p.m.l.j.R.X.y.d                                               ",
"                                      %.~.<.N.@+V.T.S.R.Z 7 6 9 (.L.K.J.I.H.F.F.D.C.C.A.z.y.x.w.u.s.q.o.m.S.Y.z.e                                               ",
"                                      *.^.|.O.@+W.V.T.T.N.J.I.H.L.M.L.K.J.I.H.G.F.E.D.C.B.A.z.y.x.w.u.r.q.U.Z.A.e                                               ",
"                                      -._.3.P.@+Y.W.V.U.T.S.R.Q.P.O.N.M.L.K.J.I.H.G.F.D.D.B.B.z.y.y.w.u.t.V.`.B.e                                               ",
"                                      ,.}.7.Q.#+Z.Y.X.W.V.U.T.S.R.P.P.N.N.L.L.K.I.H.G.F.E.D.D.B.A.z.y.x.w.X..+B.e                                               ",
"                                      ).2.0.R.#+.+`.Z.Y.Y.W.W.V.U.T.S.R.Q.P.O.O.N.M.L.K.J.I.H.G.F.F.D.D.C.Y.++C.e                                               ",
"                                      ~.6.c.R.$+$+$+$+$+$+$+$+$+$+$+$+$+$+$+$+$+$+$+$+$+$+$+$+$+$+$+$+$+$+++@+D.e                                               ",
"                                      ^.9.d.u.G.I.K.M.N.N.O.P.P.Q.R.S.S.T.U.U.V.W.W.X.Y.Y.Z.`.`. +.+++@+@+@+#+E.f                                               ",
"                                      (.c.f.j.n.r.v.x.y.A.B.C.D.F.G.H.I.J.L.M.N.O.Q.R.S.T.V.W.X.Z.Z. +.+++#+$+E.f                                               ",
"                                      <.g.j.n.r.v.x.y.A.B.C.D.E.G.H.I.K.L.M.N.O.Q.R.S.T.V.W.X.Y.Z. +.+++#+#+$+E.f                                               ",
"                                    D (.b.e.h.l.n.p.p.q.s.t.u.v.v.x.x.I.M.N.O.P.R.S.P.L.L.N.N.P.Q.R.S.T.U.U.U.v.g                                               ",
"        ;.<.;.*.%.#.@.+. .` Z Y Y X W ..#.@.@.@.@.@.+.+.+.+....... .X (.I.O.P.Q.S.L.3.8.}.].{.~.!.).,.>.;.;.;.&.T S V W V V U U T S S R R Q P P O u             ",
"      X z.U.u.O.R.Q.Q.Q.P.O.O.O.O.O.O.O.O.O.O.O.O.O.O.O.O.O.N.N.N.N.k.-.}.N.Q.S.J.].2.Z.C.D.R.R.Q.Q.P.P.O.O.O.O.O.O.O.O.O.O.O.O.O.O.O.O.N.N.N.N.C.:.z           ",
"    R %.F.Y.D.X.X.X.W.W.V.V.V.U.U.U.U.U.U.U.U.U.U.U.U.U.U.U.U.U.U.U.p.u.&.d.R.S.~.Z 9.++H.R.X.X.W.W.V.V.V.U.U.U.U.U.U.U.U.U.U.U.U.U.U.U.U.U.U.U.I.n.c.d         ",
"  P  .*.F.Z.L.W.W.V.V.U.U.T.T.S.S.R.R.Q.Q.Q.Q.Q.Q.Q.Q.Q.Q.Q.Q.Q.Q.Q.n.C.B.Z ,.,.X +.9.++J.W.W.V.V.V.U.U.T.S.S.R.R.Q.N.H.K.Q.Q.Q.Q.Q.Q.Q.Q.Q.Q.Q.F.o.I._.a       ",
"  Y +.*.F.`.M.V.V.U.U.T.S.S.R.Q.Q.P.P.O.O.O.O.O.O.O.O.O.O.O.O.O.O.O.n.D.J.e.g H +.+.9.++K.V.V.V.U.T.T.S.R.R.Q.Q.P.B.7.1.4.p.N.O.O.O.O.O.O.O.O.O.D.o.J.E.N       ",
"  ` +.*.F.`.K.U.U.T.S.S.R.Q.Q.P.O.N.N.M.L.L.L.L.L.L.L.L.L.L.L.L.L.L.l.D.L.w.k M +.+.9.++L.S.U.T.T.S.R.R.Q.P.P.O.L.6.=.=.=.'.y.L.L.L.L.L.L.L.L.L.B.p.K.L. .      ",
"  ` +.*.F.`.H.S.T.S.S.R.Q.Q.P.O.N.M.M.L.K.J.I.I.I.I.I.I.I.I.I.I.I.I.k.E.M.x.l N +.+.9.++M.N.T.T.S.R.R.Q.P.O.O.N.H./.=.$.^.@.c.I.I.I.I.I.I.I.I.I.y.p.L.M. .      ",
"  ` +.*.F.`.G.N.S.R.R.Q.Q.P.O.N.M.L.K.K.I.I.H.G.F.F.F.F.F.F.F.F.F.F.j.F.N.y.l N +.+.9.++O.I.R.S.R.R.Q.P.P.N.N.M.F.;.` #.+.V 4.F.F.F.F.F.F.F.F.F.w.p.M.N. .      ",
"  ` +.*.F. +H.H.Q.R.Q.Q.P.P.O.N.M.L.K.J.I.H.G.F.E.D.C.C.C.C.C.C.C.C.i.G.O.y.l N +.+.9.++P.E.N.R.Q.Q.P.P.O.N.M.L.H.).l.F.:.F ;.B.C.C.C.C.C.C.C.C.u.q.N.P...      ",
"  ` +.*.F. +I.F.L.Q.Q.P.P.O.N.N.M.L.J.I.H.G.F.E.D.C.B.A.z.z.z.z.z.z.h.H.P.z.l N +.+.9.++Q.E.H.P.Q.P.P.O.O.N.M.L.E.;.~.5.!.I C n.B.A.z.z.z.z.z.z.s.q.O.P...      ",
"  ` +.*.F. +K.G.G.M.P.P.O.N.N.M.M.K.K.I.H.G.F.D.C.B.A.z.x.x.w.w.w.w.g.I.Q.A.m N +.+.9.++R.G.F.J.P.P.O.O.N.M.M.L.|.$.s.k.F.<.h V w.z.y.x.w.w.w.w.q.q.P.R.+.      ",
"  ` +.*.F..+L.I.H.G.L.O.N.N.M.M.L.K.K.I.H.G.F.D.C.B.z.y.x.v.u.t.t.t.f.J.R.B.m N +.+.9.++S.I.H.G.J.N.O.N.M.M.L.j.x g.I.G.F.q.k c ;.z.x.w.v.u.t.t.n.q.R.S.+.      ",
"  ` +.*.F..+N.J.I.H.H.K.N.M.M.L.K.K.J.I.H.G.F.D.C.B.z.y.w.v.u.s.r.r.e.K.S.C.m N +.+.0.++T.K.J.I.H.I.M.N.M.L.L.+.x F.I.G.F.C.S 4 e v.x.w.u.t.r.r.m.r.R.T.+.      ",
"  ` +.-.G..+P.L.K.J.I.H.H.K.L.L.K.D.x.I.H.G.F.E.C.B.z.y.w.u.t.s.q.p.d.L.T.D.m N +.#.b.++U.L.L.J.I.H.H.J.L.L.D.8 }.I.H.G.G.E._.1 : !.x.w.u.s.r.p.k.r.T.U.@.      ",
"  ` #.,.H.++Q.M.M.K.J.F.U 1.H.I.J.^.B I.H.G.F.E.D.B.A.y.w.v.t.r.q.o.e.M.U.E.m N #.&.d.++V.N.M.L.K.J.I.H.H.I.=.< b.I.H.G.F.E._._ ! R x.v.u.s.r.p.k.s.U.V.@.      ",
"  ..*.!.I.++R.O.~.y ,.(.% o ).Q B t 4 G.G.G.F.E.D.C.B.z.x.v.t.r.o.l.e.N.V.F.m N %.=.f.++W.P.O.N.L.L.J.J.H.w.l 0 N G.G.G.F.s.p > - D y.w.u.s.p.m.h.u.V.W.#.      ",
"  #.-.].J.++T.].* 2 ; q @ 7 e + < i ^ E.D.D.C.C.B.B.z.x.v.t.q.n.l.i.h.P.W.G.m P =.,.h.@+X.Q.P.O.N.N.L.K._.s -.m.| r x.D.C.i.q 2 f v f.u.r.o.m.k.h.w.W.X.#.      ",
"  &.'._.K.@+U.B ' F.7.h.~ -.x ' n.O ^ F.E.D.C.B.A.z.y.x.v.u.s.p.o.l.k.Q.X.H.m R >.!.j.@+Y.S.R.Q.P.O.N.M.N k.J.I.,.# h.E.C.,.O p.t.%.m q.s.r.o.m.k.z.X.Y.#.      ",
"  =.~.[.L.@+W...% T ] ` { z n ( w.P / H.G.F.E.D.C.B.A.z.x.x.v.t.r.p.n.S.Z.I.m T !.^.m.@+Z.U.T.S.R.Q.O.O.P p.L.J.F.H Q #.k $ ].B.x.U o t.w.u.s.q.o.B.Y.`.$.      ",
"  ;./.1.M.@+X.G.a - 3 f.k ( y o B.,.m I.H.H.F.F.D.D.B.A.z.y.x.w.u.s.q.T.`.J.n U ]._.o.@+`.V.U.T.S.R.Q.P.'.u W 0.t.,.] | ^ , /.d.w  .l.z.y.x.v.t.r.E.Z.`.%.      ",
"  '.:.4.N.@+Y.W.V.V.T.T.R.Q.P.O.N.M.L.K.J.I.H.G.F.E.D.C.B.A.z.y.x.v.t.V. +K.n W _.[.q.@+ +X.W.V.U.T.S.R.Q.L.h.S F D t.J.H.f.B E }.C.B.A.z.y.x.w.v.G.`..+%.      ",
"  ~.|.8.O.#+`.Y.X.W.V.U.T.S.R.Q.P.O.N.M.L.K.J.I.H.G.F.E.D.B.B.z.z.x.w.W..+L.n Y [.2.s.@+.+Z.X.X.W.V.U.S.S.Q.P.N.G.G.L.K.J.I.z.A.F.E.D.C.B.A.z.y.x.I. +++%.      ",
"  ^.3.a.P.$+@+.+.+ + +`.`.Z.Z.Y.X.X.X.W.V.V.U.U.T.T.S.R.R.R.Q.P.P.P.O.`.++M.n Z 2.5.u.@+@+++.+.+ + +`.Z.Z.Y.Y.X.X.W.V.V.V.U.T.T.T.S.R.R.Q.Q.P.P.O.T..+@+&.      ",
"  _.7.d.O.$+$+$+$+$+$+$+$+$+$+$+$+$+$+$+$+$+$+$+$+$+$+$+$+$+$+$+$+$+$+++@+N.n  .6.9.v.@+$+$+$+$+$+$+$+$+$+$+$+$+$+$+$+$+$+$+$+$+$+$+$+$+$+$+$+$+$+@+@+#+*.      ",
"  <.0.e.p.y.A.D.F.G.H.I.J.K.L.M.N.O.P.Q.R.S.S.T.U.V.W.X.Y.Z.`. +.+++@+@+#+N.n +.9.b.j.v.z.C.F.G.H.I.J.K.L.M.M.O.O.P.Q.R.S.T.U.V.W.X.Y.Z.Z. + +.+++@+#+$+*.      ",
"  |.d.h.k.p.s.w.x.z.A.B.C.E.F.G.H.J.K.L.M.N.P.Q.R.T.U.V.W.X.Z.`. +++@+#+$+N.n @.b.f.j.n.r.v.x.y.z.B.C.D.E.G.H.I.J.L.M.N.O.P.R.S.T.V.W.X.Y.Z. +.+++@+$+$+*.      ",
"  3.g.k.o.s.w.x.y.A.B.C.E.F.G.H.I.K.L.M.N.P.Q.R.S.U.V.W.X.Z.`. +++++#+$+$+N.n $.f.i.m.q.u.x.y.z.A.C.D.E.F.H.I.J.K.M.N.O.P.R.S.T.U.W.X.Y.Z. +.+++@+#+$+$+*.      ",
"  5.j.n.r.v.x.y.A.B.C.D.F.G.H.I.J.L.M.N.O.Q.R.S.T.V.W.X.Z.Z. +.+++#+$+$+$+O.n &.i.m.q.t.w.y.z.A.C.D.E.F.G.I.J.K.M.N.O.P.Q.S.T.U.V.X.Y.Z. + +++@+#+$+$+$+*.      ",
"  9.n.r.v.x.y.A.B.C.D.E.G.H.I.K.L.M.N.O.Q.R.S.T.V.W.X.Y.Z. +.+++#+#+$+$+$+N.n *.m.p.t.w.y.z.A.B.D.E.F.G.I.J.K.M.M.O.P.Q.S.T.U.V.X.Y.Z.`. +++@+#+$+$+$+$+*.      ",
"  a.q.u.x.y.z.A.C.D.E.G.H.I.J.K.M.N.O.P.R.S.T.U.V.X.Y.Z. +.+++@+#+$+$+$+$+N.n =.p.t.w.y.z.A.B.C.E.F.G.I.I.K.L.M.O.P.Q.R.T.U.V.W.X.Z.`. +++@+#+$+$+$+$+$+*.      ",
"  b.u.x.y.z.A.C.D.E.F.H.I.J.K.M.N.O.P.Q.S.T.U.W.X.Y.Z. +.+++@+#+$+$+$+$+$+J.j *.s.w.x.z.A.B.C.E.F.G.H.I.K.L.M.O.O.Q.R.S.U.V.W.X.Z.`. +.+@+#+$+$+$+$+$+$+..      ",
"  L O N N N M M M M M M M M M M L L L L L L K L L K K K K K K K J I I H G t ) j P N N N M N N M M M M M M L L L L L L L L L L K K K K K K K K I I H H B 5       ",
"                                                                                                                                                                ",
"                                                                                                                                                                ",
"                                                                                                                                                                ",
"                                                                                                                                                                ",
"                                                                                                                                                                ",
"                                                                                                                                                                ",
"                                                                                                                                                                ",
"                                                                                                                                                                ",
"                                                                                                                                                                ",
"                                                                                                                                                                ",
"                                                                                                                                                                "};
