/* XPM */
static char * package_32x32_xpm[] = {
"32 32 256 2",
"  	c None",
". 	c #680000",
"+ 	c #650300",
"@ 	c #6D0100",
"# 	c #780206",
"$ 	c #7C0702",
"% 	c #8C0000",
"& 	c #840407",
"* 	c #7D0A0B",
"= 	c #7F0D05",
"- 	c #A10002",
"; 	c #800F0E",
"> 	c #821007",
", 	c #771802",
"' 	c #8A0E0C",
") 	c #AC0001",
"! 	c #A60706",
"~ 	c #B60006",
"{ 	c #4B360F",
"] 	c #9F0E02",
"^ 	c #951013",
"/ 	c #4E380B",
"( 	c #B10704",
"_ 	c #B1060C",
": 	c #A80C07",
"< 	c #BB0401",
"[ 	c #871F06",
"} 	c #C50007",
"| 	c #AC1202",
"1 	c #CF0004",
"2 	c #80280C",
"3 	c #543E11",
"4 	c #BD0A0C",
"5 	c #C80700",
"6 	c #5F3C04",
"7 	c #C70512",
"8 	c #9A2009",
"9 	c #9D1B1E",
"0 	c #623F07",
"a 	c #C90B0B",
"b 	c #D30708",
"c 	c #AA1D0A",
"d 	c #664202",
"e 	c #5D4511",
"f 	c #C21310",
"g 	c #82350A",
"h 	c #684404",
"i 	c #CC1115",
"j 	c #AF2305",
"k 	c #9D2626",
"l 	c #62490D",
"m 	c #C31618",
"n 	c #BC1B15",
"o 	c #6B4707",
"p 	c #B7210B",
"q 	c #6D4809",
"r 	c #654B10",
"s 	c #6E490A",
"t 	c #AD2A05",
"u 	c #A82726",
"v 	c #98350E",
"w 	c #863F10",
"x 	c #C61C21",
"y 	c #E21113",
"z 	c #774B06",
"A 	c #7E4711",
"B 	c #C02225",
"C 	c #794D09",
"D 	c #6C5217",
"E 	c #6E5311",
"F 	c #7D5002",
"G 	c #AB3808",
"H 	c #DD1D19",
"I 	c #AE3A0A",
"J 	c #805305",
"K 	c #E71A1E",
"L 	c #735716",
"M 	c #B93511",
"N 	c #D62324",
"O 	c #825406",
"P 	c #B43434",
"Q 	c #E02122",
"R 	c #A34411",
"S 	c #765A18",
"T 	c #AF3839",
"U 	c #984C0F",
"V 	c #D22A29",
"W 	c #85570B",
"X 	c #934E16",
"Y 	c #BF3A0B",
"Z 	c #7A5D14",
"` 	c #A24913",
" .	c #88590E",
"..	c #B64112",
"+.	c #E42725",
"@.	c #8B5B05",
"#.	c #C13735",
"$.	c #DD2B29",
"%.	c #B8480C",
"&.	c #D03436",
"*.	c #84611A",
"=.	c #935D0B",
"-.	c #D33632",
";.	c #B64D0C",
">.	c #976003",
",.	c #BC4342",
"'.	c #8A6517",
").	c #956405",
"!.	c #996206",
"~.	c #CF3D3E",
"{.	c #BE4E12",
"].	c #9B5F1A",
"^.	c #C34345",
"/.	c #CA4042",
"(.	c #8D671A",
"_.	c #9C6409",
":.	c #AB5C18",
"<.	c #A16700",
"[.	c #996716",
"}.	c #916B1E",
"|.	c #C34A48",
"1.	c #BE4C4C",
"2.	c #976A17",
"3.	c #D64242",
"4.	c #C34A4D",
"5.	c #F33836",
"6.	c #A46A05",
"7.	c #BE5A18",
"8.	c #DF4240",
"9.	c #A16D06",
"0.	c #CE4B47",
"a.	c #97701B",
"b.	c #B86017",
"c.	c #C94F4C",
"d.	c #E14542",
"e.	c #A76D0A",
"f.	c #CF4D4E",
"g.	c #E14548",
"h.	c #99721D",
"i.	c #D64B4B",
"j.	c #E94345",
"k.	c #A6710D",
"l.	c #D14F4F",
"m.	c #E54845",
"n.	c #F93F40",
"o.	c #C36315",
"p.	c #C86117",
"q.	c #AE7204",
"r.	c #C46417",
"s.	c #9E7621",
"t.	c #9F771A",
"u.	c #E14D4A",
"v.	c #DB504F",
"w.	c #E94B48",
"x.	c #F64646",
"y.	c #FC4348",
"z.	c #DC5155",
"A.	c #FD4449",
"B.	c #A37A1E",
"C.	c #AD7715",
"D.	c #B97117",
"E.	c #EB4E4F",
"F.	c #D95656",
"G.	c #B67418",
"H.	c #E05452",
"I.	c #A57C1F",
"J.	c #C76C1C",
"K.	c #B9760F",
"L.	c #F34D4D",
"M.	c #A67D20",
"N.	c #FB4B4A",
"O.	c #E05659",
"P.	c #E25654",
"Q.	c #D65B5C",
"R.	c #FA4B50",
"S.	c #B37C10",
"T.	c #B77A11",
"U.	c #BB7812",
"V.	c #A97F23",
"W.	c #E55856",
"X.	c #FD4E52",
"Y.	c #E05C5B",
"Z.	c #BC7E08",
"`.	c #F95251",
" +	c #E75B58",
".+	c #AE831E",
"++	c #F85357",
"@+	c #FF5154",
"#+	c #B98117",
"$+	c #FC5553",
"%+	c #B18521",
"&+	c #C27E1A",
"*+	c #EB5E5B",
"=+	c #B9861B",
"-+	c #FF5856",
";+	c #B38824",
">+	c #B58925",
",+	c #F45F5F",
"'+	c #FF5A5D",
")+	c #B88B1E",
"!+	c #C0871F",
"~+	c #C68616",
"{+	c #C38917",
"]+	c #BC8F23",
"^+	c #C18E24",
"/+	c #C4901D",
"(+	c #C38F26",
"_+	c #D18A1F",
":+	c #CC9014",
"<+	c #D68921",
"[+	c #C29429",
"}+	c #C49520",
"|+	c #C99422",
"1+	c #CB9624",
"2+	c #D59327",
"3+	c #D3961D",
"4+	c #DA9128",
"5+	c #CE9827",
"6+	c #D4971E",
"7+	c #DF9029",
"8+	c #D09A29",
"9+	c #D9962A",
"0+	c #CD9D2A",
"a+	c #D79A22",
"b+	c #D49C22",
"c+	c #DE9A25",
"d+	c #D8A026",
"e+	c #D0A530",
"f+	c #EC9A21",
"g+	c #DAA228",
"h+	c #D1A732",
"i+	c #E2A222",
"j+	c #E1A22C",
"k+	c #E0A624",
"l+	c #DFA62D",
"m+	c #D5AA3E",
"n+	c #E2A826",
"o+	c #DDAA30",
"p+	c #E5AB29",
"q+	c #E7AD2B",
"r+	c #E8AE2D",
"s+	c #EBB02F",
"t+	c #EDB232",
"u+	c #EFB329",
"v+	c #F0B42A",
"w+	c #F4B72E",
"x+	c #F5B82F",
"y+	c #E9C03A",
"z+	c #FABC34",
"A+	c #FEBF2D",
"B+	c #ECC837",
"C+	c #F5D643",
"D+	c #F4D64C",
"E+	c #FBDA35",
"F+	c #FBDA3F",
"G+	c #FDE559",
"                                                                ",
"                                                                ",
"                                C+5+                            ",
"                            E+D+m+k+g+                          ",
"                        E+D+e+U.[.W #+k+5+                      ",
"                    E+C+e+U.U.q.>.0 d  .=+d+)+                  ",
"                F+D+0+&+T.T.U.K.>.0 6 0 0  .=+5+                ",
"            F+B+0+U.T.K.K.K.Z.q.=.s 0 q h 0 q W =+d+            ",
"        F+y+{+U.K.K.q.Z.q.K.K.Z._.z q s s s s s z @./+n+k+      ",
"    9+G+o+T.T.Z.Z.T.K.K.K.q.T.K.).C z C F C F C C C 9.2+p.[     ",
"    m | {.<+9+U.K.q.K.Z.U.K.T.U.9.W J J O J W @.C.D.G : _ +     ",
"  b ,+H 1 < j J.6+~+T.K.T.q.K.K.6.@.@.@.@.[.S.b.c _ m B P @     ",
"  $.++`.R.n.y 1 | r.j+:+Z.T.q.K.e.).[.).T.;.: f m &.z.^.^.#     ",
"  E.x.-+-+-+'+x.K 5 | 7.9+3+Z.T.q.e.&+.._ 7 N m. +P.v.l.,.*     ",
"  ,+R.`.'+'+'+'+'+y.K 1 ) c r.4+9+%.( m V v.O.*+*+Y.v.l.1.;     ",
"  f N L.-+-+'+'+'+-+`.L.$.a ( % G.c x i.O.,+,+O.O.O.Q.T * +     ",
"    ) < $.$+-+-+++'+X.L.E.g.u v 8+U < #.z.F.H.W.Y.|.9 ,         ",
"        p 5 $.L.-+`.w.E.d./.& 2+l+a.8 x 0.i.Q.1.9 = A D         ",
"          f+Y < N j.m.g.3.9 ` u+l+t.U | P 4.k = w (.'.e         ",
"          z+t+4+M ( x &.P # i+t+s+V.h.8 ^ * g }.h.h.S {         ",
"          z+z+w+t+4+G ] ' :.u+t+q+V.s.].2 }.s.s.h.s.E           ",
"            A+t+u+u+t+4+R s+t+u+t+]+V.C.I.V.V.V.V.h.E           ",
"            A+t+t+w+t+u+s+s+t+s+t+[+V.%+.+.+.+%+%+s.r           ",
"            z+z+u+t+u+t+s+s+x+s+u+5+)+;+%+%+>+%+;+s.3           ",
"              z+t+t+w+s+x+t+w+t+s+8+(+(+(+]+]+]+>+'./           ",
"              A+s+u+t+w+s+s+s+s+s+o+}+[+[+(+[+%+}.e             ",
"              V.;+8+s+s+w+s+x+t+t+l+b+5+0+5+%+Z 3               ",
"                  S V.8+j+s+s+t+u+l+8+g+5+B.L                   ",
"                      L V.8+s+t+u+t+o+0+a.r                     ",
"                            V.8+l+p+(+'.{                       ",
"                                V.>+L                           ",
"                                                                "};
