/* XPM */
static char * paperclip_32x32_xpm[] = {
"32 32 60 1",
" 	c None",
".	c #000474",
"+	c #000879",
"@	c #000B7E",
"#	c #000F83",
"$	c #001287",
"%	c #001388",
"&	c #00168C",
"*	c #00178D",
"=	c #001A91",
"-	c #001B92",
";	c #001E96",
">	c #001F97",
",	c #00229B",
"'	c #00229C",
")	c #00229D",
"!	c #0025A0",
"~	c #0026A1",
"{	c #0026A2",
"]	c #0029A6",
"^	c #002AA6",
"/	c #002AA7",
"(	c #002DAB",
"_	c #002EAB",
":	c #002EAC",
"<	c #0031B0",
"[	c #0032B1",
"}	c #0035B5",
"|	c #0035B6",
"1	c #0036B6",
"2	c #0039BA",
"3	c #0039BB",
"4	c #003ABB",
"5	c #003DBF",
"6	c #003DC0",
"7	c #003EC0",
"8	c #0040C4",
"9	c #0040C5",
"0	c #0041C5",
"a	c #0044C9",
"b	c #0044CA",
"c	c #0045CA",
"d	c #0048CF",
"e	c #0049CF",
"f	c #004CD3",
"g	c #004CD4",
"h	c #004DD4",
"i	c #0050D8",
"j	c #0050D9",
"k	c #0054DE",
"l	c #0057E3",
"m	c #0058E3",
"n	c #005BE8",
"o	c #005CE8",
"p	c #005FED",
"q	c #0060ED",
"r	c #0063F2",
"s	c #0064F2",
"t	c #0067F7",
"u	c #006BFC",
"                                ",
"          fec                   ",
"         ihec0                  ",
"        kjhdc07                 ",
"       lkj  a064                ",
"      nmk    8631               ",
"     pom      53|[              ",
"    rqo     c0 2|[:             ",
"   tsq      c06 }[_/            ",
"  uts        063 <_^{           ",
"  uts         63| (^~)          ",
"   tsq         3|[ ]~'>         ",
"    rqo         |[: !'>-        ",
"     pom         [_/ ,>-*       ",
"      nmk         _^~ ;-*%      ",
"   ts  lkj         ^~' =*%#     ",
"   tsq  kjh         ~'> &%#@    ",
"    rqo  jhe         '>- $#@+   ",
"     pom  gec         >-*  @+.  ",
"      nmk  dc0         -*%  +.  ",
"       lkj  b06         *%# +.  ",
"        kjh  863         %# +.  ",
"         jhe  53|        %# +.  ",
"          gec  2|[       %# +.  ",
"           dc0  }[_      %# +.  ",
"            b06  <_^~'>-&%# +.  ",
"             963  (^~'>-*%# +.  ",
"              63|  ]~'>-*%# +.  ",
"               3|[          +.  ",
"                }[_^~'>-*%#@+.  ",
"                 <_^~'>-*%#@+.  ",
"                                "};
