/* XPM */
static char * sprocket_32x32_xpm[] = {
"32 32 256 2",
"  	c None",
". 	c #000100",
"+ 	c #000508",
"@ 	c #090F11",
"# 	c #061017",
"$ 	c #00171A",
"% 	c #07171B",
"& 	c #0D151B",
"* 	c #002229",
"= 	c #1A1C19",
"- 	c #111E31",
"; 	c #0F212A",
"> 	c #01282F",
", 	c #11232C",
"' 	c #092C38",
") 	c #1B282D",
"! 	c #182933",
"~ 	c #232729",
"{ 	c #093148",
"] 	c #22292F",
"^ 	c #0B3743",
"/ 	c #292D2F",
"( 	c #223C44",
"_ 	c #363835",
": 	c #074A59",
"< 	c #1A434F",
"[ 	c #313F44",
"} 	c #1D4467",
"| 	c #1F4854",
"1 	c #5F3802",
"2 	c #3F403E",
"3 	c #21486B",
"4 	c #484947",
"5 	c #25527B",
"6 	c #2C5460",
"7 	c #734300",
"8 	c #33525F",
"9 	c #2E507A",
"0 	c #2A5869",
"a 	c #2D5B6C",
"b 	c #276070",
"c 	c #525451",
"d 	c #38599C",
"e 	c #565855",
"f 	c #5C5E5B",
"g 	c #3C697B",
"h 	c #416875",
"i 	c #3C63AD",
"j 	c #60625F",
"k 	c #4F6972",
"l 	c #646663",
"m 	c #9A5D02",
"n 	c #516794",
"o 	c #626769",
"p 	c #9F5B05",
"q 	c #5C6B71",
"r 	c #4C7380",
"s 	c #6B6D6A",
"t 	c #6B6F72",
"u 	c #687077",
"v 	c #437F95",
"w 	c #A06719",
"x 	c #448096",
"y 	c #AD6700",
"z 	c #A76813",
"A 	c #AD6709",
"B 	c #4A8091",
"C 	c #6E7375",
"D 	c #A46B13",
"E 	c #B06900",
"F 	c #B56801",
"G 	c #A06D25",
"H 	c #677984",
"I 	c #A76D16",
"J 	c #6078A1",
"K 	c #A66D1F",
"L 	c #70777F",
"M 	c #6F768A",
"N 	c #B36C12",
"O 	c #A86F29",
"P 	c #737A82",
"Q 	c #A5722A",
"R 	c #797B78",
"S 	c #907752",
"T 	c #667EA7",
"U 	c #A27639",
"V 	c #C17100",
"W 	c #787F87",
"X 	c #7A7F82",
"Y 	c #977D59",
"Z 	c #B97724",
"` 	c #BB781D",
" .	c #7F8487",
"..	c #7E858D",
"+.	c #CC7A00",
"@.	c #C47A18",
"#.	c #7B87A0",
"$.	c #5A96AD",
"%.	c #AD8042",
"&.	c #9D835E",
"*.	c #84898C",
"=.	c #768D9D",
"-.	c #878986",
";.	c #D57C00",
">.	c #898B88",
",.	c #6F8CCD",
"'.	c #9E876C",
").	c #7B9296",
"!.	c #819096",
"~.	c #5D9BBE",
"{.	c #A18969",
"].	c #878F96",
"^.	c #A78B60",
"/.	c #CD822B",
"(.	c #8E908D",
"_.	c #DD8201",
":.	c #C78439",
"<.	c #CB8239",
"[.	c #8D9194",
"}.	c #B18B57",
"|.	c #B58A57",
"1.	c #B38C52",
"2.	c #D98514",
"3.	c #6BA1B2",
"4.	c #B48E59",
"5.	c #60A5CE",
"6.	c #949693",
"7.	c #D78A22",
"8.	c #5EAAC5",
"9.	c #8B9AA1",
"0.	c #D68A33",
"a.	c #DE8925",
"b.	c #959A9C",
"c.	c #62ADC9",
"d.	c #989DA0",
"e.	c #EA8D17",
"f.	c #E28E32",
"g.	c #E79124",
"h.	c #9EA09D",
"i.	c #93A3B5",
"j.	c #F89200",
"k.	c #89A2D9",
"l.	c #9EA3A5",
"m.	c #DE963D",
"n.	c #69B4E3",
"o.	c #E79731",
"p.	c #A3A5A2",
"q.	c #93ABAF",
"r.	c #E79839",
"s.	c #93AEB8",
"t.	c #F79825",
"u.	c #EC9B35",
"v.	c #C0A47E",
"w.	c #F29A2E",
"x.	c #C5A27E",
"y.	c #AFA7A0",
"z.	c #B7A890",
"A.	c #EA9F37",
"B.	c #74BFDB",
"C.	c #EF9E40",
"D.	c #68C5E5",
"E.	c #ACAEAB",
"F.	c #7BC0D6",
"G.	c #F4A133",
"H.	c #A8B0B8",
"I.	c #FBA12D",
"J.	c #92BAC9",
"K.	c #95B9CF",
"L.	c #FCA237",
"M.	c #B1B3AF",
"N.	c #FCA340",
"O.	c #BEB19F",
"P.	c #F4A83F",
"Q.	c #F9A640",
"R.	c #A8B8BE",
"S.	c #EBA95A",
"T.	c #FEA929",
"U.	c #B1B6B8",
"V.	c #B4B6B3",
"W.	c #B4B5BE",
"X.	c #F3A956",
"Y.	c #C4B49C",
"Z.	c #FFAF22",
"`.	c #FBAD3D",
" +	c #B7BAB6",
".+	c #FFAC4E",
"++	c #BABCB9",
"@+	c #FEB048",
"#+	c #F6B25C",
"$+	c #BDBFBC",
"%+	c #BBC0C3",
"&+	c #FBB551",
"*+	c #FFB644",
"=+	c #FFB452",
"-+	c #BFC1BE",
";+	c #FFB855",
">+	c #BFC4C6",
",+	c #C2C4C1",
"'+	c #FFBE41",
")+	c #FFB95C",
"!+	c #BBC8C9",
"~+	c #C4C6C3",
"{+	c #FFBF60",
"]+	c #C7C9C6",
"^+	c #D5C8B5",
"/+	c #D1C8C1",
"(+	c #B6D2DC",
"_+	c #CACCC9",
":+	c #D6CBBE",
"<+	c #CCCECB",
"[+	c #F1C790",
"}+	c #CACFD1",
"|+	c #F4CC80",
"1+	c #CFD1CE",
"2+	c #D9D1CA",
"3+	c #FFCE77",
"4+	c #D3D5D1",
"5+	c #EFD396",
"6+	c #FFD373",
"7+	c #D2D8DA",
"8+	c #FFD281",
"9+	c #D6D8D5",
"0+	c #D9DBD7",
"a+	c #DADCD9",
"b+	c #FFDC79",
"c+	c #FFD891",
"d+	c #FFDC80",
"e+	c #E3DBD4",
"f+	c #FFDC87",
"g+	c #DCDFDB",
"h+	c #FADAAB",
"i+	c #FDE088",
"j+	c #FBE08F",
"k+	c #E0E2DF",
"l+	c #E9E0D9",
"m+	c #E2E5E1",
"n+	c #E8E3E2",
"o+	c #FEE6A1",
"p+	c #E5E7E4",
"q+	c #E7E9E6",
"r+	c #EEE8E7",
"s+	c #E9EBE8",
"t+	c #FFEDA6",
"u+	c #EBEDEA",
"v+	c #EDEFEB",
"w+	c #FEF1B6",
"x+	c #FFF4A5",
"y+	c #FFF5AB",
"z+	c #EFF1EE",
"A+	c #F1F3F0",
"B+	c #F4F6F3",
"C+	c #F7F9F6",
"D+	c #F9FBF8",
"E+	c #FAFCF9",
"F+	c #FCFEFB",
"G+	c #FEFFFC",
"                                                                ",
"                                                                ",
"                                                                ",
"                          ) !                                   ",
"                        : ( ( ( ( ( (                           ",
"          6 :           < 6 8 8 8 8 8                           ",
"      g g h b ^         ^ h g g g g g             a             ",
"    x B B x B | > *     ' U.0+1+!+R.q.!.      > > 6 v           ",
"    $.$.$.$.3.,+[ $ { 5 } d.C+C+A+r+z+W     % % $ ( $.$.        ",
"    c.c.c.J.A+r+g+t @ d i [.E+G+F+E+B+M d - + + @ % c.c.c.      ",
"      B.(+A+z+r+C+A+W.J k.W.C+F+F+F+C+#.,.n + + = 6.s.B.D.      ",
"        >+B+z+B+A+C+C+B+E+E+F+G+G+F+D+<+i.T ~ b.r+r+_+l.F.      ",
"          L }+C+C+C+G+F+F+F+G+D+D+F+F+E+v+n+r+z+q+n+7+e+%+).    ",
"      + . # } W.r+E+E+E+/+^.G K K Q }.O.r+C+z+u+p+q+r+W.c       ",
"    & @ # # 5 7+C+E+r+&.A f.o.Q.G.Q.g.+.K z.A+r+k+U./ + @       ",
"    k L t o ..r+C+E+{.` |+i+i+8+{+;+;+=+e.N '.s+n+U.) ] , ,     ",
"    r -+r+C+C+A+B+n+O 5+w+y+c+C.;.2.w.{+)+2.m y.n+2+[...W P u   ",
"      ].k+n+r+r+A+9+Z j+f+o+o.p 1 7 V Q.6+C.N S 7+7+7+4+<+<+R   ",
"      u >+k+r+r+r+r+Z )+|+X.y         T.d+#+N Y e+}+}+/+>+W.2   ",
"        W.n+p+u+q+B+|..+#+e.E         '+x+S.w O.7+7+2+>+-+(.    ",
"          e c o %+r+:+f.=+w._.;._.j.T.t+h+<.U n+}+o             ",
"                =.7+z+v.f.N.L.I.I.&+d+[+<.O e+7+[.              ",
"              5.~.%+7+r+v./.f.r.r.m./.N %.n+2+>+%+H             ",
"              n.K.r+e+7+s+:+}.K I K 4.:+s+/+>+%+ +U.            ",
"                7+}+}+}+}+7+k+q+q+u+n+}+W.h.++ +y.4             ",
"                >.M.>+/+(.j d.U.>+>+>+e     d.[._               ",
"                  s l.W.      d.$+++%+                          ",
"                      j       9.W.W.++                          ",
"                              -.-.R s                           ",
"                                                                ",
"                                                                ",
"                                                                "};
