/* XPM */
static char * worker_16x16_xpm[] = {
"16 16 98 2",
"  	c None",
". 	c #80490F",
"+ 	c #7E4B15",
"@ 	c #854B02",
"# 	c #86510C",
"$ 	c #5555A2",
"% 	c #915610",
"& 	c #5858A4",
"* 	c #905C1C",
"= 	c #925E1C",
"- 	c #6263AC",
"; 	c #9E6710",
"> 	c #9F6812",
", 	c #A16918",
"' 	c #A96B2B",
") 	c #9E6E39",
"! 	c #AC6B27",
"~ 	c #A37334",
"{ 	c #A77430",
"] 	c #A2753D",
"^ 	c #B87128",
"/ 	c #7D7EBC",
"( 	c #8282A5",
"_ 	c #B27C44",
": 	c #7D80C2",
"< 	c #BB7D37",
"[ 	c #8285C2",
"} 	c #8285C3",
"| 	c #B78E4E",
"1 	c #8B8FC7",
"2 	c #B88F50",
"3 	c #B78F55",
"4 	c #B89152",
"5 	c #C68C4C",
"6 	c #9193BF",
"7 	c #9C9CB5",
"8 	c #969BD5",
"9 	c #A0A1C3",
"0 	c #A0A6DC",
"a 	c #C7A87D",
"b 	c #DBA16D",
"c 	c #DEA363",
"d 	c #A7AAD9",
"e 	c #A5ABE1",
"f 	c #E4A557",
"g 	c #A8ADE0",
"h 	c #CDB189",
"i 	c #E9A96E",
"j 	c #CFB48A",
"k 	c #AEB5E8",
"l 	c #D4BC95",
"m 	c #D4B9A8",
"n 	c #BCBCE0",
"o 	c #C1C2D8",
"p 	c #FFB773",
"q 	c #D8C0B0",
"r 	c #EABF8D",
"s 	c #FFC079",
"t 	c #FFBF83",
"u 	c #FFC17A",
"v 	c #FFC17B",
"w 	c #F6C486",
"x 	c #C8CCEC",
"y 	c #D5CCD4",
"z 	c #C7CEF3",
"A 	c #E3CDBD",
"B 	c #C6D0FF",
"C 	c #CAD2FC",
"D 	c #D1D3E7",
"E 	c #CAD4FF",
"F 	c #CBD4FF",
"G 	c #CDD4FA",
"H 	c #D3D4EA",
"I 	c #CBD5FF",
"J 	c #CCD5FF",
"K 	c #D1D6F7",
"L 	c #FFD299",
"M 	c #FFD29A",
"N 	c #FFD39B",
"O 	c #D5DBF9",
"P 	c #F9D8B0",
"Q 	c #D8DFFF",
"R 	c #ECE2D1",
"S 	c #DCE3FF",
"T 	c #EDE3D2",
"U 	c #DDE4FF",
"V 	c #EEE4D4",
"W 	c #FFE3BF",
"X 	c #FFE3C0",
"Y 	c #E6E7F5",
"Z 	c #FFE4C1",
"` 	c #E5EAFF",
" .	c #E6EAFF",
"..	c #E8ECFF",
"+.	c #E9ECFD",
"@.	c #ECEEF9",
"#.	c #EFF1FB",
"$.	c #F5F7FF",
"            = ] *               ",
"        # a R V T h .           ",
"        3 l l l l j {           ",
"      @ | 4 4 2 ~ _ b           ",
"      % ; > , ' i t p ^         ",
"      + < 5 c v v u s !         ",
"        f N L L L M w           ",
"          r Z W X P )           ",
"          n A m q y 1           ",
"        e S U d O U G           ",
"      } B J I : k I E 0         ",
"      g F F F - 8 F F C         ",
"      K Q Q z $ [ Q Q Q 6       ",
"      +. .` x & / ` ` ..9       ",
"      ( o Y $.H @.#.D 7         ",
"                                "};
